<?xml version="1.0" encoding="UTF-8" standalone="no"?>
<!-- Created with Inkscape (http://www.inkscape.org/) -->

<svg
   width="105mm"
   height="20mm"
   viewBox="0 0 105 20"
   version="1.1"
   id="svg5"
   sodipodi:docname="cupertinosquarewhite.svg"
   inkscape:version="1.1 (c68e22c387, 2021-05-23)"
   xmlns:inkscape="http://www.inkscape.org/namespaces/inkscape"
   xmlns:sodipodi="http://sodipodi.sourceforge.net/DTD/sodipodi-0.dtd"
   xmlns="http://www.w3.org/2000/svg"
   xmlns:svg="http://www.w3.org/2000/svg"
   xmlns:rdf="http://www.w3.org/1999/02/22-rdf-syntax-ns#"
   xmlns:cc="http://creativecommons.org/ns#"
   xmlns:dc="http://purl.org/dc/elements/1.1/">
  <sodipodi:namedview
     id="namedview15"
     pagecolor="#ffffff"
     bordercolor="#666666"
     borderopacity="1.0"
     inkscape:pageshadow="2"
     inkscape:pageopacity="0.0"
     inkscape:pagecheckerboard="0"
     inkscape:document-units="mm"
     showgrid="false"
     inkscape:zoom="4.9807813"
     inkscape:cx="137.22747"
     inkscape:cy="55.51338"
     inkscape:window-width="1920"
     inkscape:window-height="1217"
     inkscape:window-x="-8"
     inkscape:window-y="-8"
     inkscape:window-maximized="1"
     inkscape:current-layer="text15582"
     inkscape:snap-bbox="true"
     inkscape:bbox-paths="true"
     inkscape:bbox-nodes="true"
     inkscape:snap-bbox-edge-midpoints="true"
     inkscape:snap-bbox-midpoints="true"
     width="105mm"
     inkscape:object-paths="true"
     inkscape:snap-intersection-paths="true"
     inkscape:snap-smooth-nodes="true"
     inkscape:snap-midpoints="true" />
  <title
     id="title23554">Cupertino Square</title>
  <defs
     id="defs2" />
  <metadata
     id="metadata23552">
    <rdf:RDF>
      <cc:Work
         rdf:about="">
        <dc:title>Cupertino Square</dc:title>
      </cc:Work>
    </rdf:RDF>
  </metadata>
  <path
     id="path4545"
     style="fill:#ffffff;stroke-width:0.264583"
     d="M 0,0 V 19.999813 H 84.99998 L 104.99979,0 Z" />
  <rect
     style="fill:#ffffff;fill-opacity:1;stroke:none;stroke-width:0.264583;stroke-linecap:round;stroke-linejoin:miter"
     id="rect19459"
     width="53.521"
     height="19.999813"
     x="0"
     y="0"
     inkscape:export-filename="D:\MartinLewisMoneyShow.png"
     inkscape:export-xdpi="1269.4576"
     inkscape:export-ydpi="1269.4576" />
  <g
     id="g19435"
     inkscape:export-filename="D:\MartinLewisMoneyShow"
     inkscape:export-xdpi="1269.4576"
     inkscape:export-ydpi="1269.4576">
    <g
       id="layer1"
       transform="matrix(0.75,0,0,0.75,2.5000003,2.5)"
       style="fill:#1d4289;fill-opacity:1">
      <g
         id="g15315"
         transform="matrix(0.30769227,0,0,0.30769227,-85.784902,-60.201202)"
         style="fill:#1d4289;fill-opacity:1">
        <rect
           style="fill:#1d4289;fill-opacity:1;stroke-width:0.249451"
           id="rect4224"
           width="20.000015"
           height="65.000008"
           x="278.80096"
           y="195.65393" />
        <rect
           style="fill:#1d4289;fill-opacity:1;stroke-width:0.276347"
           id="rect4226"
           width="29.999968"
           height="15"
           x="301.30099"
           y="245.65393" />
        <rect
           style="fill:#1d4289;fill-opacity:1;stroke-width:0.264583"
           id="rect4228"
           width="10"
           height="5"
           x="333.80103"
           y="255.65393" />
        <rect
           style="fill:#1d4289;fill-opacity:1;stroke-width:0.264583"
           id="rect4230"
           width="12.5"
           height="47.500008"
           x="318.80096"
           y="195.65393" />
        <rect
           style="fill:#1d4289;fill-opacity:1;stroke-width:0.264583"
           id="rect4232"
           width="10"
           height="10"
           x="333.80099"
           y="195.65393" />
        <rect
           style="fill:#1d4289;fill-opacity:1;stroke-width:0.289836"
           id="rect7025"
           width="15"
           height="47.500008"
           x="301.30099"
           y="195.65393" />
        <rect
           style="fill:#1d4289;fill-opacity:1;stroke-width:0.264583"
           id="rect7131"
           width="9.9999685"
           height="45.000008"
           x="333.80103"
           y="208.15393" />
      </g>
    </g>
    <g
       aria-label="2021"
       id="text15582"
       style="font-size:2.6715px;line-height:1.25;font-family:'Futura Book';-inkscape-font-specification:'Futura Book, ';fill:#00ad50;stroke-width:0.0667878">
      <path
         d="m 23.233179,9.5590525 2.023412,-4.706035 0.83317,4.4496752 h 0.759923 L 25.522107,2.5 23.233179,7.9110247 20.944251,2.5 19.616673,9.3026927 h 0.759924 l 0.824014,-4.4496752 z"
         id="path19736" />
      <path
         d="m 33.579109,9.3026927 h 0.759924 V 6.1805955 h 0.109868 l 2.38964,3.1220972 h 0.988817 L 35.327849,6.1805955 c 0.04578,0 0.09156,0 0.137336,0 1.153619,0 1.767052,-0.5676541 1.767052,-1.6388722 0,-0.6408997 -0.238049,-1.1627752 -0.613433,-1.4557579 -0.402851,-0.3112941 -0.878948,-0.3296056 -1.501536,-0.3296056 -0.06409,0 -0.12818,0 -0.201426,0 h -1.336733 z"
         id="path19730" />
      <path
         d="m 34.339033,3.415571 h 0.595121 c 1.034595,0 1.529003,0.1831142 1.529003,1.135308 0,0.9064154 -0.503564,1.0529067 -1.529003,1.0529067 h -0.595121 z"
         id="path19728" />
      <path
         d="m 39.621874,9.3026927 h 0.787392 V 3.4979724 h 1.840297 V 2.7563598 h -4.477142 v 0.7416126 h 1.849453 z"
         id="path19726" />
      <path
         d="m 43.128511,9.3026927 h 0.778236 V 2.7563598 h -0.778236 z"
         id="path19724" />
      <path
         d="m 45.490674,9.3026927 h 0.741613 V 4.3860763 l 4.788436,5.1729762 V 2.7563598 H 50.279111 V 7.7279105 L 45.490674,2.5 Z"
         id="path19722" />
      <path
         d="m 19.616673,17.24361 h 3.250278 v -0.741608 h -2.472042 v -5.80472 h -0.778236 z"
         id="path19720" />
      <path
         d="m 23.791672,17.24361 h 3.451702 v -0.723301 h -2.673467 v -2.508665 h 2.673467 v -0.723301 h -2.673467 v -1.876921 h 2.673467 v -0.71414 h -3.451702 z"
         id="path19718" />
      <path
         d="m 27.710314,10.697277 2.536132,6.802693 1.702962,-5.063108 1.712118,5.063108 2.536132,-6.802693 h -0.842326 l -1.666339,4.815908 -1.748741,-5.072263 -1.730429,5.072263 -1.657183,-4.815903 z"
         id="path19716" />
      <path
         d="m 36.930099,17.24361 h 0.778235 v -6.546328 h -0.778235 z"
         id="path19714" />
      <path
         d="m 41.672747,13.608793 -0.933883,-0.412007 c -0.595121,-0.25636 -0.878948,-0.585966 -0.878948,-1.052907 0,-0.558498 0.412007,-0.952194 0.997973,-0.952194 0.466941,0 0.824013,0.25636 1.10784,0.750768 l 0.6409,-0.412007 c -0.32045,-0.650055 -0.906415,-0.988816 -1.693806,-0.988816 -1.08953,0 -1.840298,0.695834 -1.840298,1.611405 0,0.796547 0.421163,1.364201 1.290955,1.730429 l 0.796547,0.338761 c 0.677523,0.292983 1.016284,0.723301 1.016284,1.309267 0,0.714145 -0.521876,1.217709 -1.309267,1.217709 -0.659211,0 -1.107841,-0.412007 -1.300111,-1.208553 l -0.704989,0.347917 c 0.247204,0.970505 0.970505,1.519847 2.0051,1.519847 1.263488,0 2.096658,-0.805702 2.096658,-2.0051 0,-0.824014 -0.430319,-1.428291 -1.290955,-1.794519 z"
         id="path19712" />
      <path
         d="m 46.642148,12.254348 h -0.723977 l 0.299208,-0.323251 c 0.307223,-0.333938 0.483542,-0.585059 0.483542,-0.860223 0,-0.328595 -0.219063,-0.528957 -0.593073,-0.528957 -0.376682,0 -0.598416,0.211048 -0.598416,0.571701 0,0.01603 0.0027,0.03473 0.0027,0.05076 h 0.21372 c 0,-0.008 0,-0.01603 0,-0.02137 0,-0.253792 0.133575,-0.39271 0.37401,-0.39271 0.229749,0 0.376682,0.141589 0.376682,0.333937 0,0.24845 -0.240435,0.499571 -0.582387,0.90831 l -0.403397,0.478199 h 1.151417 z"
         id="path19710" />
      <path
         d="m 47.7081,12.521498 c 0.400725,0 0.65986,-0.355309 0.65986,-0.991126 0,-0.635817 -0.256464,-0.988455 -0.665203,-0.988455 -0.398054,0 -0.659861,0.357981 -0.659861,0.988455 0,0.630474 0.261807,0.991126 0.665204,0.991126 z"
         id="path19708" />
      <path
         d="m 47.7054,12.334493 c -0.264478,0 -0.42744,-0.288522 -0.42744,-0.806793 0,-0.515599 0.162962,-0.80145 0.42744,-0.80145 0.277836,0 0.42744,0.275165 0.42744,0.806793 0,0.528957 -0.149604,0.80145 -0.42744,0.80145 z"
         id="path19706" />
      <path
         d="m 49.794509,12.254353 h -0.723977 l 0.299208,-0.323251 c 0.307223,-0.333938 0.483542,-0.585059 0.483542,-0.860223 0,-0.328595 -0.219063,-0.528957 -0.593073,-0.528957 -0.376682,0 -0.598416,0.211048 -0.598416,0.571701 0,0.01603 0.0027,0.03473 0.0027,0.05076 h 0.21372 c 0,-0.008 0,-0.01603 0,-0.02137 0,-0.253792 0.133575,-0.39271 0.37401,-0.39271 0.229749,0 0.376682,0.141589 0.376682,0.333937 0,0.24845 -0.240435,0.499571 -0.582387,0.90831 l -0.403397,0.478199 h 1.151417 z"
         id="path19704" />
      <path
         d="m 50.798988,12.470745 h 0.221734 v -1.891422 h -0.483541 l -0.128232,0.197691 h 0.390039 z"
         id="path19365" />
    </g>
  </g>
</svg>
