<?xml version="1.0" encoding="UTF-8" standalone="no"?>
<!-- Created with Inkscape (http://www.inkscape.org/) -->

<svg
   version="1.1"
   id="svg824"
   width="105mm"
   height="20mm"
   viewBox="0 0 396.85039 75.590553"
   xmlns="http://www.w3.org/2000/svg"
   xmlns:svg="http://www.w3.org/2000/svg">
  <defs
     id="defs828" />
  <g
     id="g830">
    <g
       id="g11504"
       transform="translate(94.037082,106.98943)">
      <path
         d="m -94.037082,-106.98943 v 75.589844 H 227.22297 l 75.5906,-75.589844 z"
         id="path4545"
         stroke-width="0.999999"
         fill="#ffffff" />
      <g
         id="layer1"
         fill="#1d4289"
         transform="matrix(2.8346475,0,0,2.8346475,-84.588257,-97.540605)">
        <g
           id="g15315"
           transform="matrix(0.307692,0,0,0.307692,-85.7849,-60.2012)">
          <rect
             x="278.80099"
             y="195.65401"
             width="20"
             height="65"
             id="rect4224"
             stroke-width="0.249451" />
          <rect
             x="301.30099"
             y="245.65401"
             width="30"
             height="15"
             id="rect4226"
             stroke-width="0.276347" />
          <rect
             x="333.80099"
             y="255.65401"
             width="10"
             height="5"
             id="rect4228"
             stroke-width="0.264583" />
          <rect
             x="318.80099"
             y="195.65401"
             width="12.5"
             height="47.5"
             id="rect4230"
             stroke-width="0.264583" />
          <rect
             x="333.80099"
             y="195.65401"
             width="10"
             height="10"
             id="rect4232"
             stroke-width="0.264583" />
          <rect
             x="301.30099"
             y="195.65401"
             width="15"
             height="47.5"
             id="rect7025"
             stroke-width="0.289836" />
          <rect
             x="333.80099"
             y="208.15401"
             width="9.9999704"
             height="45"
             id="rect7131"
             stroke-width="0.264583" />
        </g>
      </g>
      <g
         id="g6392"
         transform="matrix(0.46871186,0,0,0.46871186,-24.003357,-36.940457)"
         style="fill:#00ad50;fill-opacity:1">
        <path
           d="m 42.673738,-71.722969 16.501341,-38.378681 6.79467,36.288013 h 6.197336 L 61.340413,-129.291 42.673738,-85.162976 24.007062,-129.291 13.18039,-73.813637 h 6.197337 l 6.720003,-36.288013 z"
           id="path5147"
           style="font-size:74.6667px;line-height:1.25;font-family:'Futura Book';-inkscape-font-specification:'Futura Book, ';fill:#00ad50;fill-opacity:1" />
        <path
           d="m 97.255049,-129.291 -24.192012,55.477363 h 6.869337 l 6.944003,-16.352008 h 20.832013 l 6.944,16.352008 h 6.86934 z m 0,14.03734 8.512001,19.637346 H 88.743045 Z"
           id="path5149"
           style="font-size:74.6667px;line-height:1.25;font-family:'Futura Book';-inkscape-font-specification:'Futura Book, ';fill:#00ad50;fill-opacity:1" />
        <path
           d="m 133.24426,-121.82433 h 4.85334 c 8.43733,0 12.46934,1.49334 12.46934,9.25867 0,7.39201 -4.10667,8.58668 -12.46934,8.58668 h -4.85334 z m -6.19734,48.010693 h 6.19734 v -25.461345 h 0.896 l 19.48801,25.461345 h 8.064 l -20.38401,-25.461345 c 0.37334,0 0.74667,0 1.12,0 9.40801,0 14.41068,-4.629338 14.41068,-13.365338 0,-5.22667 -1.94134,-9.48267 -5.00267,-11.87201 -3.28534,-2.53867 -7.168,-2.688 -12.24534,-2.688 -0.52267,0 -1.04533,0 -1.64267,0 h -10.90134 z"
           id="path5151"
           style="font-size:74.6667px;line-height:1.25;font-family:'Futura Book';-inkscape-font-specification:'Futura Book, ';fill:#00ad50;fill-opacity:1" />
        <path
           d="m 176.32693,-73.813637 h 6.42134 v -47.338693 h 15.00801 v -6.048 h -36.51202 v 6.048 h 15.08267 z"
           id="path5153"
           style="font-size:74.6667px;line-height:1.25;font-family:'Futura Book';-inkscape-font-specification:'Futura Book, ';fill:#00ad50;fill-opacity:1" />
        <path
           d="m 204.92428,-73.813637 h 6.34667 v -53.386693 h -6.34667 z"
           id="path5155"
           style="font-size:74.6667px;line-height:1.25;font-family:'Futura Book';-inkscape-font-specification:'Futura Book, ';fill:#00ad50;fill-opacity:1" />
        <path
           d="m 224.1882,-73.813637 h 6.04801 v -40.096023 l 39.05068,42.186691 v -55.477361 h -6.048 v 40.54402 L 224.1882,-129.291 Z"
           id="path5157"
           style="font-size:74.6667px;line-height:1.25;font-family:'Futura Book';-inkscape-font-specification:'Futura Book, ';fill:#00ad50;fill-opacity:1" />
        <g
           id="g5204"
           transform="translate(-4.778669,0.053314)"
           style="fill:#00ad50;fill-opacity:1">
          <path
             d="m 17.809726,-10.480259 h 26.506679 v -6.048003 H 24.156396 v -47.338689 h -6.34667 z"
             id="path5159"
             style="font-size:74.6667px;line-height:1.25;font-family:'Futura Book';-inkscape-font-specification:'Futura Book, ';fill:#00ad50;fill-opacity:1" />
          <path
             d="m 51.857696,-10.480259 h 28.149347 v -5.898669 H 58.204365 v -20.458677 h 21.802678 v -5.898669 H 58.204365 v -15.306674 h 21.802678 v -5.824003 H 51.857696 Z"
             id="path5161"
             style="font-size:74.6667px;line-height:1.25;font-family:'Futura Book';-inkscape-font-specification:'Futura Book, ';fill:#00ad50;fill-opacity:1" />
          <path
             d="m 83.815033,-63.866951 20.682677,55.4773597 13.88801,-41.2906867 13.96267,41.2906867 20.68268,-55.4773597 h -6.86934 l -13.58934,39.274685 -14.26134,-41.365353 -14.11201,41.365353 -13.51467,-39.274685 z"
             id="path5163"
             style="font-size:74.6667px;line-height:1.25;font-family:'Futura Book';-inkscape-font-specification:'Futura Book, ';fill:#00ad50;fill-opacity:1" />
          <path
             d="m 159.00427,-10.480259 h 6.34667 v -53.386692 h -6.34667 z"
             id="path5165"
             style="font-size:74.6667px;line-height:1.25;font-family:'Futura Book';-inkscape-font-specification:'Futura Book, ';fill:#00ad50;fill-opacity:1" />
          <path
             d="m 197.68153,-40.12294 -7.616,-3.360001 c -4.85334,-2.090668 -7.168,-4.778669 -7.168,-8.586671 0,-4.554669 3.36,-7.765337 8.13867,-7.765337 3.808,0 6.72,2.090668 9.03467,6.122669 l 5.22667,-3.360001 c -2.61334,-5.301336 -7.39201,-8.064004 -13.81334,-8.064004 -8.88534,0 -15.00801,5.674669 -15.00801,13.14134 0,6.496003 3.43467,11.125338 10.52801,14.112006 l 6.496,2.762668 c 5.52533,2.389335 8.288,5.89867 8.288,10.677339 0,5.824003 -4.256,9.930671 -10.67734,9.930671 -5.376,0 -9.03467,-3.360001 -10.60267,-9.856005 l -5.74933,2.837335 c 2.016,7.914671 7.91467,12.3946727 16.352,12.3946727 10.30401,0 17.09868,-6.5706697 17.09868,-16.3520077 0,-6.720003 -3.50934,-11.648006 -10.52801,-14.634674 z"
             id="path5167"
             style="font-size:74.6667px;line-height:1.25;font-family:'Futura Book';-inkscape-font-specification:'Futura Book, ';fill:#00ad50;fill-opacity:1" />
        </g>
        <text
           xml:space="preserve"
           style="font-size:21.7862px;line-height:1.25;font-family:'Futura Book';-inkscape-font-specification:'Futura Book, ';fill:#00ad50;fill-opacity:1;stroke-width:0.291779"
           x="222.96886"
           y="-49.993332"
           id="text6220"><tspan
             id="tspan6218"
             x="222.96886"
             y="-49.993332"
             style="fill:#00ad50;fill-opacity:1;stroke-width:0.291779">2021</tspan></text>
      </g>
    </g>
  </g>
</svg>
